<svg xmlns="http://www.w3.org/2000/svg" width="14" height="14" viewBox="0 0 14 14">
  <g fill="none" fill-rule="evenodd">
    <path fill="#74A2D6" d="M5.09540485,12.9695708 L3.9747705,13.149624 C3.63753946,13.2038072 3.30857566,13.0138798 3.18688414,12.6947376 L2.78249761,11.6342132 C2.70931223,11.4422808 2.55771921,11.2906878 2.36578681,11.2175024 L1.3052624,10.8131159 C0.986120165,10.6914243 0.796192829,10.3624605 0.850376002,10.0252295 L1.03042919,8.90459515 C1.06301499,8.70178413 1.0075281,8.49470421 0.877902454,8.33535762 L0.161654645,7.4548864 C-0.0538848818,7.18992734 -0.0538848818,6.81007266 0.161654645,6.5451136 L0.877902454,5.66464238 C1.0075281,5.50529579 1.06301499,5.29821587 1.03042919,5.09540485 L0.850376002,3.9747705 C0.796192829,3.63753946 0.986120165,3.30857566 1.3052624,3.18688414 L2.36578681,2.78249761 C2.55771921,2.70931223 2.70931223,2.55771921 2.78249761,2.36578681 L3.18688414,1.3052624 C3.30857566,0.986120165 3.63753946,0.796192829 3.9747705,0.850376002 L5.09540485,1.03042919 C5.29821587,1.06301499 5.50529579,1.0075281 5.66464238,0.877902454 L6.5451136,0.161654645 C6.81007266,-0.0538848818 7.18992734,-0.0538848818 7.4548864,0.161654645 L8.33535762,0.877902454 C8.49470421,1.0075281 8.70178413,1.06301499 8.90459515,1.03042919 L10.0252295,0.850376002 C10.3624605,0.796192829 10.6914243,0.986120165 10.8131159,1.3052624 L11.2175024,2.36578681 C11.2906878,2.55771921 11.4422808,2.70931223 11.6342132,2.78249761 L12.6947376,3.18688414 C13.0138798,3.30857566 13.2038072,3.63753946 13.149624,3.9747705 L12.9695708,5.09540485 C12.936985,5.29821587 12.9924719,5.50529579 13.1220975,5.66464238 L13.8383454,6.5451136 C14.0538849,6.81007266 14.0538849,7.18992734 13.8383454,7.4548864 L13.1220975,8.33535762 C12.9924719,8.49470421 12.936985,8.70178413 12.9695708,8.90459515 L13.149624,10.0252295 C13.2038072,10.3624605 13.0138798,10.6914243 12.6947376,10.8131159 L11.6342132,11.2175024 C11.4422808,11.2906878 11.2906878,11.4422808 11.2175024,11.6342132 L10.8131159,12.6947376 C10.6914243,13.0138798 10.3624605,13.2038072 10.0252295,13.149624 L8.90459515,12.9695708 C8.70178413,12.936985 8.49470421,12.9924719 8.33535762,13.1220975 L7.4548864,13.8383454 C7.18992734,14.0538849 6.81007266,14.0538849 6.5451136,13.8383454 L5.66464238,13.1220975 C5.50529579,12.9924719 5.29821587,12.936985 5.09540485,12.9695708 L5.09540485,12.9695708 Z"/>
    <polyline stroke="#FFFFFF" stroke-width="1.5" points="4.25 7.25 6 9 9.75 5.25" stroke-linecap="round" stroke-linejoin="round"/>
  </g>
</svg>